# xmcd CD database file
#
# Track frame offsets:
#	150
#	16180
#	31292
#	47230
#	67030
#
# Disc length: 1145 seconds
#
# Revision: 2
# Processed by: cddbd v1.4b41PL1 Copyright (c) Steve Scherf et al.
# Submitted via: Feurio! 1.50.2ß - http://www.feurio.com
#
DISCID=3b047705
DTITLE=New Ornament - Pasha`s Groove 
DYEAR=1900
DGENRE=
TTITLE0=War And Might, radio edit
TTITLE1=Feel The Motion
TTITLE2=Look Away, radio edit
TTITLE3=War And Might
TTITLE4=Look Away
EXTD=
EXTT0=
EXTT1=
EXTT2=
EXTT3=
EXTT4=
PLAYORDER=
